<?xml version="1.0" encoding="UTF-8" standalone="no"?>
<svg
   xmlns:dc="http://purl.org/dc/elements/1.1/"
   xmlns:cc="http://creativecommons.org/ns#"
   xmlns:rdf="http://www.w3.org/1999/02/22-rdf-syntax-ns#"
   xmlns:svg="http://www.w3.org/2000/svg"
   xmlns="http://www.w3.org/2000/svg"
   xmlns:sodipodi="http://sodipodi.sourceforge.net/DTD/sodipodi-0.dtd"
   xmlns:inkscape="http://www.inkscape.org/namespaces/inkscape"
   version="1.1"
   id="Layer_2"
   x="0px"
   y="0px"
   viewBox="743.9364 45.799 1072.1272 1508.4021"
   enable-background="new 743.9364 45.799 1072.1272 1508.4021"
   xml:space="preserve"
   inkscape:version="0.91 r13725"
   sodipodi:docname="Fist Cleaned Up.svg"><metadata
     id="metadata23"><rdf:RDF><cc:Work
         rdf:about=""><dc:format>image/svg+xml</dc:format><dc:type
           rdf:resource="http://purl.org/dc/dcmitype/StillImage" /><dc:title></dc:title></cc:Work></rdf:RDF></metadata><defs
     id="defs21" /><sodipodi:namedview
     pagecolor="#ffffff"
     bordercolor="#666666"
     borderopacity="1"
     objecttolerance="10"
     gridtolerance="10"
     guidetolerance="10"
     inkscape:pageopacity="0"
     inkscape:pageshadow="2"
     inkscape:window-width="640"
     inkscape:window-height="480"
     id="namedview19"
     showgrid="false"
     inkscape:zoom="0.57809519"
     inkscape:cx="45.569801"
     inkscape:cy="825.12363"
     inkscape:current-layer="Layer_2" /><path
     display="none"
     fill="#FF0000"
     d="M1044.0077,1522.5356c0,0-19.0836-0.0223-0.6989-132.6935  c18.3846-132.6713,28.5813-179.6321,47.3029-287.7372c7.058-16.1438-68.3862-92.2231-128.9153-197.7404  C899.9449,796.7165,818.025,668.5521,772.967,623.9187c0,0,174.6051-335.4541,237.819-349.6864  c0,0,301.3812,108.86,337.0663,144.5451c0,0-1.6885,91.6752-28.6427,104.2204c-26.9543,12.5452-108.8787,44.596-154.5442,34.6042  c0,0-66.5129-72.4035-90.3392-83.5027c0,0-6.2708,4.3005,1.4514,23.8679c7.7223,19.5674-10.4012,69.4088-39.2782,89.5321  c0,0-21.8448,3.1385-20.069,6.7997c1.7759,3.6612,5.1862,8.7151,30.2112,12.0414c25.0249,3.3263,41.4226,16.8926,51.1404,21.7706  c9.7179,4.8781,39.9987,16.8593,64.2749,23.7075c0,0,237.1202,313.2578,237.1202,342.053c0,0-71.9669,66.2099-101.9054,69.0026  c0,0-4.9395,0.0358,0,4.9752s64.5757-0.9453,70.8878,5.3668s2.0121,22.6842,6.6121,38.0059  c4.6,15.3218,22.4229,131.2911,18.4923,150.0347c0,0-2.1134,15.7976,3.9779,28.4371c2.6931,15.3368,7.0638,82.1619,5.3597,88.0372  c-1.7042,5.8755,3.834,11.4138,3.834,11.4138s6.1136-2.9048,6.1136-14.1914c0-11.2867-14.7137-261.0466-3.911-270.7197  c0,0,10.1158-12.895,18.9054-12.895c8.7897,0,24.7629-16.0286,32.1096-20.0052c0,0,4.1583-5.0769-6.9741-10.9508  c-11.1323-5.8739-31.7252-18.7007-41.3689-59.7083c-11.6437-20.0076-24.2794-66.0872-42.3224-107.9173  s-13.7299-36.4236-13.7299-36.4236s-95.3713-114.5455-124.6481-153.1061c0,0-16.1036-21.2645,0-20.3709  c16.1036,0.8935,144.0354,21.6741,160.3262,34.7954c0,0,53.0165,4.6835,81.2068,39.6826  c32.7279,29.0347,57.3043,56.3031,68.4141,60.4844c0,0,8.8715,5.9367,12.4072,14.309s10.1061,8.5808,13.7668,3.4523  c3.6608-5.1286,12.3208-17.4926,16.6698-17.4926c4.3491,0,116.9965-105.4218,123.0477-105.4218  c6.0514,0,12.3269-9.6339,14.3142,6.1003c1.9872,15.7341-14.4666,140.5987-25.387,151.5191  c-1.9001,9.1588-23.234,109.7161-34.1799,133.0906s-15.9235,16.6872-38.3097,46.5308c0,0-18.4618,35.0239-29.6478,46.21  s-20.6222,22.6746-22.309,29.0284c-1.6869,6.3539-13.3855,144.1783-8.6575,181.5168c0,39.3384,0.7406,137.007-2.4326,150.9333  c-3.1732,13.9263-6.3809,32.405-6.3809,48.0717c0,0,1.8606,13.4637-7.7947,14.3201S1044.0077,1522.5356,1044.0077,1522.5356z"
     id="path3" /><g
     id="g5"><path
       d="M1698.8696,714.1502c8.1627-4.0903,12.3269-9.6339,14.3141,6.1002c1.9873,15.7342-18.0509,137.929-25.387,151.5192   c-4.4431,8.2311-23.2339,109.7161-34.1798,133.0906s-15.9235,16.6872-38.3097,46.5308c0,0-18.4619,35.0238-29.6479,46.2098   s-20.6222,22.6747-22.309,29.0286s-13.3855,144.1783-8.6575,181.5167c0,39.3385,0.7407,137.0071-2.4325,150.9335   c-3.1732,13.9263-6.3809,32.405-6.3809,48.0717c0,0,1.8606,13.4637-7.7947,14.3201s-501.6561,2.549-501.6561,2.549   s-19.0837-0.0223-0.699-132.6936c18.3848-132.6711,28.5814-179.632,47.303-287.7371   c7.058-16.1438-68.3862-92.2231-128.9153-197.7404C892.3659,798.2011,765.388,665.4916,765.388,625.4033   c0-40.0883,180.6624-358.4637,237.819-349.6864c48.5797,7.4601,332.4727,128.8253,337.0663,144.545   c4.5938,15.7197-1.6885,91.6752-28.6427,104.2204c-26.9542,12.5452-108.8785,44.5961-154.5441,34.6042   c0,0-66.5129-72.4035-90.3392-83.5027c0,0-6.2709,4.3005,1.4514,23.8679c7.7223,19.5674-10.4012,69.4088-39.2783,89.532   c0,0-21.8448,3.1385-20.0689,6.7997s5.1862,8.7152,30.2111,12.0415c25.025,3.3262,41.4227,16.8925,51.1405,21.7706   c9.7178,4.878,44.3859,12.0288,64.2749,23.7075s233.6201,327.553,233.389,342.6786   c-0.2312,15.1256-68.2357,65.5842-98.1743,68.3768c0,0-4.9395,0.0359,0,4.9753s64.5758-0.9453,70.8879,5.3668   c6.312,6.3121,2.0121,22.6842,6.6121,38.0059c4.5999,15.3218,22.4229,131.2911,18.4922,150.0345c0,0-2.1134,15.7977,3.978,28.4373   c2.693,15.3367,7.0638,82.1617,5.3596,88.0372s3.8341,11.4138,3.8341,11.4138s6.1136-2.9048,6.1136-14.1914   c0-11.2867-14.7139-261.0466-3.911-270.7197c0,0,10.1158-12.895,18.9054-12.895s24.7629-16.0286,32.1096-20.0054   c0,0,4.1582-5.0769-6.9741-10.9508c-11.1324-5.8738-31.7253-18.7006-41.3689-59.7082   c-11.6437-20.0076-24.2795-66.0872-42.3225-107.9173s-13.7297-36.4236-13.7297-36.4236s-95.3715-114.5455-124.6481-153.1061   c0,0-16.1036-21.2644,0-20.3709c16.1036,0.8936,141.8162,27.4501,160.326,34.7954c18.51,7.3454,53.0166,4.6835,81.2069,39.6826   c32.7278,29.0346,57.3042,56.303,68.4139,60.4844c0,0,8.8716,5.9366,12.4073,14.309c3.5358,8.3724,10.1061,8.5809,13.7668,3.4523"
       id="path7" /><path
       d="M1787.6073,568.0131l-65.201-66.7341c-10.3391-10.711-33.6136-24.843-45.4854-13.3835l-192.2397,230.1955   c-11.8717,11.4595-13.1255,29.599-2.7863,40.31l52.3232,54.205c10.3392,10.7111,28.5117,10.0986,40.3833-1.3609l210.2196-202.9219   C1796.6926,596.8636,1797.9464,578.7241,1787.6073,568.0131z"
       id="path9" /><path
       d="M1643.0168,417.7045l-78.1154-77.1882c-20.2834-16.0252-49.9905-12.5411-66.0156,7.7423l-178.5674,255.44   c-16.0251,20.2834-12.5411,49.9904,7.7422,66.0156l84.0931,40.1989c20.2834,16.0251,49.9905,12.5411,66.0156-7.7422   l172.5897-218.4508C1666.7843,463.4367,1663.3003,433.7296,1643.0168,417.7045z"
       id="path11" /><path
       d="M1179.1563,329.5342l-95.4225-40.9615c-10.0885-6.4694-35.0616-18.9906-38.0463-29.7581   c-3.453-12.4573,21.4777-33.8608,28.9623-45.5325l74.2036-115.7154c13.954-21.7603,43.1748-28.1472,64.9351-14.1932   l80.5052,51.6248c12.0575,7.732,26.9176,17.7467,28.6897,30.987c1.426,10.6545-8.2745,24.2453-14.4965,33.948l-74.2036,115.7154   C1220.3293,337.4088,1200.9165,343.4882,1179.1563,329.5342z"
       id="path13" /><path
       d="M1397.0585,174.5955l99.6362,59.6512c22.1791,13.2784,29.4614,42.2889,16.1831,64.4679l-69.3453,115.8284   c-5.8326,9.7422-13.2351,15.5906-19.8616,23.8525c-2.8053,3.4977-11.2585,10.2083-18.75,21.25   c-17.42,25.6758-44.3032,60.9567-53,55.75c-17.2906-26.5753,6.9843-72.4065,6.0667-97.2881   c-0.8119-22.0154-62.1219-38.5475-78.5593-47.0327c-10.4017-6.2274-32.9929-10.3586-36.2573-21.1792   c-3.6959-12.2513,13.0236-31.5115,20.0743-43.2887l69.3453-115.8284C1345.869,168.5995,1374.8795,161.3171,1397.0585,174.5955z"
       id="path15" /><path
       d="M1330.9209,542.6456c0,0,4.875,0.125,0.375,9c-5.75,8.625-70.5,81.125-77.875,92.125s-11.4301,14.0614-16.25,12.375   c-39.3053-13.7523-113.8053-63.7523-124.75-76.5c-5.4135-6.3053-11.2219-26.419,12-31c14.1115-0.7523,14.25,4.5,25.5,23.25   s50.75,6.5,69.25,1.5"
       id="path17" /></g></svg>