<?xml version="1.0" encoding="UTF-8" standalone="no" ?>
<!DOCTYPE svg PUBLIC "-//W3C//DTD SVG 1.1//EN" "http://www.w3.org/Graphics/SVG/1.1/DTD/svg11.dtd">
<svg xmlns="http://www.w3.org/2000/svg" xmlns:xlink="http://www.w3.org/1999/xlink" version="1.1" width="32" height="32" viewBox="0 0 32 32" xml:space="preserve">
<desc>Created with Fabric.js 4.2.0</desc>
<defs>
</defs>
<g transform="matrix(1 0 0 1 16 16)" id="955ff2ed-fc8f-4a67-8182-0251d7f01788"  >
<rect style="stroke: none; stroke-width: 1; stroke-dasharray: none; stroke-linecap: butt; stroke-dashoffset: 0; stroke-linejoin: miter; stroke-miterlimit: 4; fill: rgb(255,255,255); fill-opacity: 0; fill-rule: nonzero; opacity: 1;" vector-effect="non-scaling-stroke"  x="-16" y="-16" rx="0" ry="0" width="32" height="32" />
</g>
<g transform="matrix(Infinity NaN NaN Infinity 0 0)" id="20890f57-3936-47c5-a319-ca841404bf21"  >
</g>
<g transform="matrix(0.02 0 0 0.02 16 16)"  >
<g style="" vector-effect="non-scaling-stroke"   >
		<g transform="matrix(1 0 0 1 -33.05 98.38)" id="path3"  >
<path style="stroke: none; stroke-width: 1; stroke-dasharray: none; stroke-linecap: butt; stroke-dashoffset: 0; stroke-linejoin: miter; stroke-miterlimit: 4; fill: rgb(113,108,174); fill-rule: nonzero; opacity: 1; visibility: hidden;" vector-effect="non-scaling-stroke"  transform=" translate(-1246.95, -898.38)" d="M 1044.0077 1522.5356 C 1044.0077 1522.5356 1024.9241000000002 1522.5132999999998 1043.3088 1389.8420999999998 C 1061.6934 1257.1707999999999 1071.8901 1210.2099999999998 1090.6117 1102.1048999999998 C 1097.6697 1085.9610999999998 1022.2254999999999 1009.8817999999998 961.6963999999999 904.3644999999998 C 899.9449 796.7165 818.025 668.5521 772.967 623.9187 C 772.967 623.9187 947.5721 288.46459999999996 1010.786 274.23229999999995 C 1010.786 274.23229999999995 1312.1671999999999 383.09229999999997 1347.8523 418.77739999999994 C 1347.8523 418.77739999999994 1346.1638 510.45259999999996 1319.2096 522.9978 C 1292.2552999999998 535.543 1210.3309 567.5938 1164.6653999999999 557.602 C 1164.6653999999999 557.602 1098.1525 485.19849999999997 1074.3262 474.09929999999997 C 1074.3262 474.09929999999997 1068.0554 478.39979999999997 1075.7776 497.9672 C 1083.4998999999998 517.5346 1065.3763999999999 567.376 1036.4994 587.4993 C 1036.4994 587.4993 1014.6546 590.6378 1016.4304 594.299 C 1018.2062999999999 597.9602 1021.6166 603.0141 1046.6416 606.3403999999999 C 1071.6664999999998 609.6666999999999 1088.0642 623.233 1097.782 628.1109999999999 C 1107.4999 632.9890999999999 1137.7807 644.9702999999998 1162.0569 651.8184999999999 C 1162.0569 651.8184999999999 1399.1771 965.0762999999998 1399.1771 993.8714999999999 C 1399.1771 993.8714999999999 1327.2102000000002 1060.0813999999998 1297.2717 1062.8740999999998 C 1297.2717 1062.8740999999998 1292.3322 1062.9098999999999 1297.2717 1067.8492999999999 C 1302.2112 1072.7886999999998 1361.8474 1066.9039999999998 1368.1595 1073.2160999999999 C 1374.4715999999999 1079.5282 1370.1716 1095.9002999999998 1374.7716 1111.2219999999998 C 1379.3716 1126.5437999999997 1397.1945 1242.5130999999997 1393.2639 1261.2566999999997 C 1393.2639 1261.2566999999997 1391.1505 1277.0542999999998 1397.2418 1289.6937999999998 C 1399.9349 1305.0305999999998 1404.3056 1371.8556999999998 1402.6015 1377.7309999999998 C 1400.8973 1383.6064999999999 1406.4355 1389.1447999999998 1406.4355 1389.1447999999998 C 1406.4355 1389.1447999999998 1412.5491 1386.2399999999998 1412.5491 1374.9533999999999 C 1412.5491 1363.6666999999998 1397.8354 1113.9067999999997 1408.6381 1104.2336999999998 C 1408.6381 1104.2336999999998 1418.7539 1091.3386999999998 1427.5435 1091.3386999999998 C 1436.3332 1091.3386999999998 1452.3064 1075.3100999999997 1459.6531 1071.3334999999997 C 1459.6531 1071.3334999999997 1463.8114 1066.2565999999997 1452.679 1060.3826999999997 C 1441.5467 1054.5087999999996 1420.9538 1041.6819999999996 1411.3101000000001 1000.6743999999997 C 1399.6664 980.6667999999996 1387.0307000000003 934.5871999999997 1368.9877000000001 892.7570999999997 C 1350.9447 850.9269999999997 1355.2578 856.3334999999997 1355.2578 856.3334999999997 C 1355.2578 856.3334999999997 1259.8865 741.7879999999998 1230.6097 703.2273999999998 C 1230.6097 703.2273999999998 1214.5061 681.9628999999998 1230.6097 682.8564999999998 C 1246.7133 683.7499999999998 1374.6451 704.5305999999997 1390.9359 717.6518999999997 C 1390.9359 717.6518999999997 1443.9524 722.3353999999997 1472.1426999999999 757.3344999999997 C 1504.8706 786.3691999999998 1529.447 813.6375999999997 1540.5567999999998 817.8188999999998 C 1540.5567999999998 817.8188999999998 1549.4282999999998 823.7555999999997 1552.964 832.1278999999997 C 1556.4997 840.5001999999997 1563.0701 840.7086999999997 1566.7308 835.5801999999998 C 1570.3916000000002 830.4515999999998 1579.0516 818.0875999999997 1583.4006 818.0875999999997 C 1587.7496999999998 818.0875999999997 1700.3971 712.6657999999998 1706.4483 712.6657999999998 C 1712.4997 712.6657999999998 1718.7752 703.0318999999997 1720.7625 718.7660999999997 C 1722.7497 734.5001999999997 1706.2959 859.3647999999997 1695.3755 870.2851999999997 C 1693.4754 879.4439999999997 1672.1415000000002 980.0012999999997 1661.1956 1003.3757999999997 C 1650.2496999999998 1026.7502999999997 1645.2721 1020.0629999999996 1622.8859 1049.9065999999998 C 1622.8859 1049.9065999999998 1604.4241 1084.9304999999997 1593.2381 1096.1165999999998 C 1582.0521 1107.3027 1572.6159 1118.7912 1570.9291 1125.1449999999998 C 1569.2422000000001 1131.4988999999998 1557.5436 1269.3232999999998 1562.2716 1306.6617999999999 C 1562.2716 1346.0002 1563.0122000000001 1443.6688 1559.839 1457.5950999999998 C 1556.6658 1471.5213999999999 1553.4580999999998 1490.0000999999997 1553.4580999999998 1505.6667999999997 C 1553.4580999999998 1505.6667999999997 1555.3186999999998 1519.1304999999998 1545.6634 1519.9868999999997 C 1536.0081 1520.8432999999995 1044.0077 1522.5356 1044.0077 1522.5356 z" stroke-linecap="round" />
</g>
		<g transform="matrix(1 0 0 1 -40.65 99.78)" id="path7"  >
<path style="stroke: none; stroke-width: 1; stroke-dasharray: none; stroke-linecap: butt; stroke-dashoffset: 0; stroke-linejoin: miter; stroke-miterlimit: 4; fill: rgb(113,108,174); fill-rule: nonzero; opacity: 1;" vector-effect="non-scaling-stroke"  transform=" translate(-1239.35, -899.78)" d="M 1698.8696 714.1502 C 1707.0323 710.0599000000001 1711.1965 704.5163 1713.1837 720.2504 C 1715.171 735.9846 1695.1328 858.1794 1687.7967 871.7696000000001 C 1683.3536000000001 880.0007 1664.5628000000002 981.4857000000001 1653.6169 1004.8602000000001 C 1642.6709999999998 1028.2347 1637.6933999999999 1021.5474 1615.3072 1051.391 C 1615.3072 1051.391 1596.8453 1086.4148 1585.6593 1097.6008000000002 C 1574.4733 1108.7868000000003 1565.0371 1120.2755000000002 1563.3503 1126.6294000000003 C 1561.6635 1132.9833000000003 1549.9648 1270.8077000000003 1554.6928 1308.1461000000002 C 1554.6928 1347.4846000000002 1555.4335 1445.1532000000002 1552.2603000000001 1459.0796000000003 C 1549.0871000000002 1473.0059000000003 1545.8794 1491.4846000000002 1545.8794 1507.1513000000002 C 1545.8794 1507.1513000000002 1547.74 1520.6150000000002 1538.0847 1521.4714000000001 C 1528.4294000000002 1522.3278 1036.4286000000002 1524.0204 1036.4286000000002 1524.0204 C 1036.4286000000002 1524.0204 1017.3449000000002 1523.9981 1035.7296000000001 1391.3268 C 1054.1144000000002 1258.6557 1064.3110000000001 1211.6948 1083.0326 1103.5897 C 1090.0906 1087.4459 1014.6464 1011.3666 954.1173 905.8493 C 892.3659 798.2011 765.388 665.4916 765.388 625.4033 C 765.388 585.3149999999999 946.0504000000001 266.9395999999999 1003.207 275.71689999999995 C 1051.7867 283.17699999999996 1335.6797 404.5422 1340.2733 420.26189999999997 C 1344.8671000000002 435.98159999999996 1338.5848 511.9371 1311.6306 524.4823 C 1284.6764 537.0275 1202.7521 569.0784 1157.0865 559.0865 C 1157.0865 559.0865 1090.5736 486.683 1066.7473 475.5838 C 1066.7473 475.5838 1060.4764 479.8843 1068.1987 499.4517 C 1075.9209999999998 519.0191 1057.7975 568.8605 1028.9204 588.9837 C 1028.9204 588.9837 1007.0756 592.1222 1008.8515 595.7834 C 1010.6274 599.4446 1014.0377 604.4986 1039.0626 607.8249000000001 C 1064.0876 611.1511 1080.4853 624.7174000000001 1090.2031 629.5955000000001 C 1099.9208999999998 634.4735000000002 1134.589 641.6243000000002 1154.478 653.3030000000001 C 1174.3670000000002 664.9817 1388.0981000000002 980.8560000000001 1387.8670000000002 995.9816000000001 C 1387.6358000000002 1011.1072 1319.6313000000002 1061.5658 1289.6927000000003 1064.3584 C 1289.6927000000003 1064.3584 1284.7532000000003 1064.3943000000002 1289.6927000000003 1069.3337000000001 C 1294.6322000000002 1074.2731 1354.2685000000004 1068.3884 1360.5806000000002 1074.7005000000001 C 1366.8926000000001 1081.0126000000002 1362.5927000000001 1097.3847 1367.1927000000003 1112.7064 C 1371.7926000000002 1128.0282 1389.6156000000003 1243.9975 1385.6849000000002 1262.7409 C 1385.6849000000002 1262.7409 1383.5715000000002 1278.5386 1389.6629000000003 1291.1782 C 1392.3559000000002 1306.5149000000001 1396.7267000000002 1373.3399 1395.0225000000003 1379.2154 C 1393.3183000000004 1385.0909000000001 1398.8566000000003 1390.6292 1398.8566000000003 1390.6292 C 1398.8566000000003 1390.6292 1404.9702000000002 1387.7244 1404.9702000000002 1376.4378000000002 C 1404.9702000000002 1365.1511 1390.2563000000002 1115.3912 1401.0592000000001 1105.7181 C 1401.0592000000001 1105.7181 1411.1750000000002 1092.8231 1419.9646000000002 1092.8231 C 1428.7542000000003 1092.8231 1444.7275000000002 1076.7945 1452.0742000000002 1072.8177 C 1452.0742000000002 1072.8177 1456.2324000000003 1067.7408 1445.1001000000003 1061.8669 C 1433.9677000000004 1055.9931 1413.3748000000003 1043.1663 1403.7312000000004 1002.1587 C 1392.0875000000003 982.1510999999999 1379.4517000000003 936.0715 1361.4087000000004 894.2414 C 1343.3657000000005 852.4113 1347.6790000000003 857.8178 1347.6790000000003 857.8178 C 1347.6790000000003 857.8178 1252.3075000000003 743.2723000000001 1223.0309000000002 704.7117000000001 C 1223.0309000000002 704.7117000000001 1206.9273000000003 683.4473 1223.0309000000002 684.3408000000001 C 1239.1345000000001 685.2344 1364.8471000000002 711.7909000000001 1383.3569000000002 719.1362 C 1401.8669000000002 726.4816000000001 1436.3735000000001 723.8197 1464.5638000000001 758.8188 C 1497.2916 787.8534 1521.8680000000002 815.1218 1532.9777000000001 819.3032000000001 C 1532.9777000000001 819.3032000000001 1541.8493 825.2398000000001 1545.3850000000002 833.6122 C 1548.9208000000003 841.9846 1555.4911000000002 842.1931000000001 1559.1518000000003 837.0645000000001" stroke-linecap="round" />
</g>
		<g transform="matrix(1 0 0 1 354.75 -148.05)" id="path9"  >
<path style="stroke: none; stroke-width: 1; stroke-dasharray: none; stroke-linecap: butt; stroke-dashoffset: 0; stroke-linejoin: miter; stroke-miterlimit: 4; fill: rgb(113,108,174); fill-rule: nonzero; opacity: 1;" vector-effect="non-scaling-stroke"  transform=" translate(-1634.75, -651.95)" d="M 1787.6073 568.0131 L 1722.4062999999999 501.279 C 1712.0672 490.568 1688.7927 476.436 1676.9208999999998 487.89549999999997 L 1484.6811999999998 718.091 C 1472.8094999999998 729.5505 1471.5556999999997 747.69 1481.8948999999998 758.4010000000001 L 1534.2180999999998 812.6060000000001 C 1544.5572999999997 823.3171000000001 1562.7297999999998 822.7046000000001 1574.6013999999998 811.2451000000001 L 1784.821 608.3232 C 1796.6926 596.8636 1797.9464 578.7241 1787.6073 568.0131 z" stroke-linecap="round" />
</g>
		<g transform="matrix(1 0 0 1 205.54 -274.79)" id="path11"  >
<path style="stroke: none; stroke-width: 1; stroke-dasharray: none; stroke-linecap: butt; stroke-dashoffset: 0; stroke-linejoin: miter; stroke-miterlimit: 4; fill: rgb(113,108,174); fill-rule: nonzero; opacity: 1;" vector-effect="non-scaling-stroke"  transform=" translate(-1485.54, -525.21)" d="M 1643.0168 417.7045 L 1564.9014000000002 340.5163 C 1544.6180000000002 324.4911 1514.9109000000003 327.9752 1498.8858000000002 348.2586 L 1320.3184000000003 603.6985999999999 C 1304.2933000000003 623.982 1307.7773000000004 653.689 1328.0606000000002 669.7141999999999 L 1412.1537000000003 709.9130999999999 C 1432.4371000000003 725.9381999999998 1462.1442000000002 722.4541999999999 1478.1693000000002 702.1708999999998 L 1650.7590000000002 483.7200999999999 C 1666.7843 463.4367 1663.3003 433.7296 1643.0168 417.7045 z" stroke-linecap="round" />
</g>
		<g transform="matrix(1 0 0 1 -95.76 -593.5)" id="path13"  >
<path style="stroke: none; stroke-width: 1; stroke-dasharray: none; stroke-linecap: butt; stroke-dashoffset: 0; stroke-linejoin: miter; stroke-miterlimit: 4; fill: rgb(113,108,174); fill-rule: nonzero; opacity: 1;" vector-effect="non-scaling-stroke"  transform=" translate(-1184.24, -206.5)" d="M 1179.1563 329.5342 L 1083.7338000000002 288.5727 C 1073.6453000000001 282.1033 1048.6722000000002 269.58209999999997 1045.6875000000002 258.8146 C 1042.2345000000003 246.35729999999998 1067.1652000000001 224.9538 1074.6498000000001 213.28209999999999 L 1148.8534000000002 97.56669999999998 C 1162.8074000000001 75.80639999999998 1192.0282000000002 69.41949999999999 1213.7885 83.37349999999998 L 1294.2937000000002 134.99829999999997 C 1306.3512 142.73029999999997 1321.2113000000002 152.74499999999998 1322.9834 165.98529999999997 C 1324.4094 176.63979999999998 1314.7089 190.23059999999998 1308.4869 199.93329999999997 L 1234.2833 315.64869999999996 C 1220.3293 337.4088 1200.9165 343.4882 1179.1563 329.5342 z" stroke-linecap="round" />
</g>
		<g transform="matrix(1 0 0 1 101.08 -458.06)" id="path15"  >
<path style="stroke: none; stroke-width: 1; stroke-dasharray: none; stroke-linecap: butt; stroke-dashoffset: 0; stroke-linejoin: miter; stroke-miterlimit: 4; fill: rgb(113,108,174); fill-rule: nonzero; opacity: 1;" vector-effect="non-scaling-stroke"  transform=" translate(-1381.08, -341.94)" d="M 1397.0585 174.5955 L 1496.6947 234.24669999999998 C 1518.8738 247.52509999999998 1526.1561 276.5356 1512.8778 298.71459999999996 L 1443.5325 414.54299999999995 C 1437.6999 424.2852 1430.2974 430.13359999999994 1423.6709 438.39549999999997 C 1420.8656 441.8932 1412.4124000000002 448.6038 1404.9209 459.64549999999997 C 1387.5009 485.32129999999995 1360.6177 520.6021999999999 1351.9209 515.3955 C 1334.6303 488.8202 1358.9052000000001 442.989 1357.9876000000002 418.1074 C 1357.1757000000002 396.092 1295.8657 379.55989999999997 1279.4283000000003 371.0747 C 1269.0266000000004 364.8473 1246.4354000000003 360.7161 1243.1710000000003 349.8955 C 1239.4751000000003 337.6442 1256.1946000000003 318.384 1263.2453000000003 306.6068 L 1332.5906000000002 190.77840000000003 C 1345.869 168.5995 1374.8795 161.3171 1397.0585 174.5955 z" stroke-linecap="round" />
</g>
		<g transform="matrix(1 0 0 1 -59.62 -200.39)" id="path17"  >
<path style="stroke: none; stroke-width: 1; stroke-dasharray: none; stroke-linecap: butt; stroke-dashoffset: 0; stroke-linejoin: miter; stroke-miterlimit: 4; fill: rgb(113,108,174); fill-rule: nonzero; opacity: 1;" vector-effect="non-scaling-stroke"  transform=" translate(-1220.38, -599.61)" d="M 1330.9209 542.6456 C 1330.9209 542.6456 1335.7959 542.7706 1331.2959 551.6456 C 1325.5459 560.2706 1260.7959 632.7706 1253.4209 643.7706 C 1246.0459 654.7706 1241.9908 657.832 1237.1709 656.1456 C 1197.8656 642.3933 1123.3656 592.3933 1112.4209 579.6456 C 1107.0074 573.3403 1101.199 553.2266 1124.4209 548.6456 C 1138.5324 547.8933 1138.6709 553.1456 1149.9209 571.8956 C 1161.1709 590.6456 1200.6709 578.3956 1219.1709 573.3956" stroke-linecap="round" />
</g>
</g>
</g>
</svg>